<svg width="200" height="200" viewBox="0 0 200 200" xmlns="http://www.w3.org/2000/svg">
  <!-- Background circle -->
  <circle cx="100" cy="100" r="90" fill="#fff8e1" stroke="#f57f17" stroke-width="3"/>
  
  <!-- Nested lists structure -->
  <g transform="translate(100, 70)">
    <!-- Outer list brackets -->
    <text x="-45" y="15" font-family="monospace" font-size="32" fill="#f57f17" font-weight="bold">[</text>
    <text x="35" y="15" font-family="monospace" font-size="32" fill="#f57f17" font-weight="bold">]</text>
    
    <!-- Inner lists -->
    <g transform="translate(-20, 0)">
      <!-- First inner list -->
      <rect x="-15" y="-5" width="30" height="12" rx="2" fill="#ff8f00" opacity="0.7"/>
      <text x="-12" y="2" font-family="monospace" font-size="8" fill="white">[1,2]</text>
    </g>
    
    <text x="-5" y="8" font-family="monospace" font-size="12" fill="#f57f17">,</text>
    
    <g transform="translate(10, 0)">
      <!-- Second inner list -->
      <rect x="-15" y="-5" width="30" height="12" rx="2" fill="#ff6f00" opacity="0.7"/>
      <text x="-12" y="2" font-family="monospace" font-size="8" fill="white">[3,4]</text>
    </g>
  </g>
  
  <!-- Puzzle piece metaphor -->
  <g transform="translate(100, 110)">
    <!-- Puzzle pieces representing ethical complexity -->
    <g transform="translate(-25, 0)">
      <path d="M -10,-8 L 8,-8 Q 12,-8 12,-4 Q 12,0 8,0 L 2,0 Q 2,4 6,4 Q 10,4 10,8 L -10,8 Q -14,8 -14,4 L -14,-4 Q -14,-8 -10,-8" 
            fill="#4caf50" opacity="0.8" stroke="#2e7d32"/>
      <text x="-2" y="2" text-anchor="middle" font-family="Arial, sans-serif" font-size="8" fill="white">?</text>
    </g>
    
    <g transform="translate(25, 0)">
      <path d="M 10,-8 L -8,-8 Q -12,-8 -12,-4 Q -12,0 -8,0 L -2,0 Q -2,4 -6,4 Q -10,4 -10,8 L 10,8 Q 14,8 14,4 L 14,-4 Q 14,-8 10,-8" 
            fill="#2196f3" opacity="0.8" stroke="#1565c0"/>
      <text x="2" y="2" text-anchor="middle" font-family="Arial, sans-serif" font-size="8" fill="white">!</text>
    </g>
  </g>
  
  <!-- Ethics symbol -->
  <g transform="translate(100, 145)">
    <circle cx="0" cy="0" r="12" fill="none" stroke="#f57f17" stroke-width="2"/>
    <path d="M -6,-6 L 6,6 M -6,6 L 6,-6" stroke="#f57f17" stroke-width="2"/>
  </g>
  
  <!-- Advanced operations hint -->
  <g transform="translate(50, 40)">
    <text x="0" y="0" font-family="monospace" font-size="8" fill="#f57f17" opacity="0.7">.append()</text>
  </g>
  <g transform="translate(130, 160)">
    <text x="0" y="0" font-family="monospace" font-size="8" fill="#f57f17" opacity="0.7">.extend()</text>
  </g>
  
</svg>